<svg width="16" height="16" viewBox="0 0 16 16" xmlns="http://www.w3.org/2000/svg"><rect width="16" height="16" fill="none"/><path d="M12.778 8.732L14 10.342a6.453 6.453 0 0 1-.934 1.62l-2.002-.252c-.4.328-.855.594-1.348.781l-.784 1.861a6.5 6.5 0 0 1-1.864 0l-.784-1.861a4.833 4.833 0 0 1-1.348-.781l-2.002.251A6.453 6.453 0 0 1 2 10.341l1.222-1.61a4.884 4.884 0 0 1 0-1.542L2 5.579c.233-.587.55-1.132.934-1.62l2.002.252c.4-.329.855-.594 1.348-.781l.784-1.862a6.5 6.5 0 0 1 1.864 0l.784 1.862c.493.187.948.452 1.348.78l2.002-.25c.385.487.701 1.032.934 1.62l-1.222 1.609a4.884 4.884 0 0 1 0 1.543zM8 10.113c1.188 0 2.15-.964 2.15-2.153A2.152 2.152 0 1 0 8 10.113z" fill="#6E6E6E" fill-rule="evenodd"/></svg>